<?xml version="1.0" encoding="UTF-8"?>
<svg width="24px" height="24px" viewBox="0 0 24 24" fill="none" xmlns="http://www.w3.org/2000/svg">
  <path d="M22.2819 9.8211a5.9847 5.9847 0 0 0-.5157-4.9108 6.0462 6.0462 0 0 0-6.5098-2.9A6.0651 6.0651 0 0 0 4.9807 4.1818a5.9847 5.9847 0 0 0-3.9977 2.9 6.0462 6.0462 0 0 0 .7427 7.0966 5.98 5.98 0 0 0 .511 4.9107 6.051 6.051 0 0 0 6.5146 2.9001A5.9847 5.9847 0 0 0 13.2599 24a6.051 6.051 0 0 0 6.0572-2.9088 5.9894 5.9894 0 0 0 3.9977-2.9001 6.0557 6.0557 0 0 0-.7475-7.0989 5.9894 5.9894 0 0 0 .0146-.371zm-9.0322 12.6502a4.4778 4.4778 0 0 1-2.8764-1.0408l.1419-.0804 4.7783-2.7582a.7948.7948 0 0 0 .3927-.6813v-6.7369l2.02 1.1686a.071.071 0 0 1 .038.052v5.5826a4.504 4.504 0 0 1-4.4945 4.4944zm-9.6607-4.1254a4.4685 4.4685 0 0 1-.5346-3.0137l.142.0852 4.783 2.7582a.7712.7712 0 0 0 .7806 0l5.8428-3.3685v2.3324a.0804.0804 0 0 1-.0332.0615L9.74 19.9502a4.4992 4.4992 0 0 1-6.1408-1.6059zm-1.4993-9.742a4.4992 4.4992 0 0 1 2.3654-1.9728V11.6a.7664.7664 0 0 0 .3879.6765l5.8144 3.3543-2.0201 1.1685a.0757.0757 0 0 1-.071 0l-4.8303-2.7865A4.4685 4.4685 0 0 1 2.1297 8.6038zm16.5706 3.8558l-5.7426-3.3259 2.02-1.1638a.0757.0757 0 0 1 .071 0l4.8303 2.7913a4.4945 4.4945 0 0 1-.6765 8.1042v-5.6772a.79.79 0 0 0-.4022-.6813zm2.0107-3.0231l-.142-.0853-4.7735-2.7818a.7759.7759 0 0 0-.7854 0L9.409 9.2297V6.8974a.0615.0615 0 0 1 .0332-.0615l4.8303-2.7866a4.4992 4.4992 0 0 1 6.6802 4.6884zm-11.0076-2.428L13.234 8.34l-2.0201-1.1638a.0757.0757 0 0 1-.038-.0567V1.5338a4.4992 4.4992 0 0 1 7.3757 3.1311c0 .0615-.0426.276-.0615.3374l-4.7546 2.7818a.7806.7806 0 0 0-.3785.6813zm-3.4207 6.955l-2.02-1.1685a.0757.0757 0 0 1-.038-.0568v-5.5921a4.4992 4.4992 0 0 1 7.4088-3.4022l-.142.0805L7.04 6.639a.7853.7853 0 0 0-.3927.6813zm.0284 3.0231L8.4242 12.33l-2.0201 1.1638a.0757.0757 0 0 1-.071 0l-4.8303-2.7913a4.4992 4.4992 0 0 1 6.1121-6.524l.142.0853 4.7688 2.7582a.7759.7759 0 0 0 .7854 0l5.8238-3.36 2.0107 1.1685a.071.071 0 0 1 .0284.0615c0 .0379-.0095.0615-.0284.0615l-4.8067 2.7818a.7806.7806 0 0 0-.3785.6765z" fill="#0EA982"/>
</svg> 